<svg fill="none" xmlns="http://www.w3.org/2000/svg" viewBox="0 0 900 850">
  <path d="m268.99 554.89 349.96 43c-23.75 95.72-135.3 245.19-315.03 240.32-58.76-1.59-140.74-28.04-205.66-83.99-69.04-75.24-73.23-96.31-88.73-183.32C-2.65 397.78 109.67 236.79 283 223.27c101.46-9.45 206.5 30.2 271.28 107.78L269 554.89Z" fill="#7BC0D6"/>
  <path d="m312.34 536.1 269.5-197.82c-30.56-36.63-61.94-65.49-91.64-84.55-54.16-34.77-106.86-45.35-152.47-47.19-175.37-7.04-286.04 110.78-324.44 236.5-39.7 130 7.87 302.52 165.5 376.8 24.89 11.73 72.4 33.54 151.07 29.72 67.26-3.27 112.15-24.2 144.68-42.48 32.53-18.27 71.68-50.2 98.2-93.18 17.2-27.86 32.32-50.06 61.17-126.57L312.34 536.1ZM136.7 391.5C87.94 447.32 81.13 511.38 86 557.93c4.66 44.46 32.04 143.95 154.54 185.82 41.48 14.18 113.26 14.8 176.99-14.64 43.17-19.94 77.85-57.7 96.7-92.87 4.06-7.57 14.78-30.83 17.75-43.3l70.46 9.56c-15.37 46.26-26.66 69.1-44.42 96.32-35.2 53.92-81.52 90.13-144.46 112.7-64.97 23.3-144.55 28.5-207.9 4.16C66.61 762.23-13.36 620.17 19.54 466.62 38.78 376.8 95.47 310.77 170 270.17c123.35-67.18 273.3-54.17 371.5 64-26.12 20.8-25.57 20.43-61.9 50.08-28.28-29-53.97-46-77.57-56.34-112.36-49.22-216.61 7.77-265.36 63.6Z" fill="#34353D"/>
  <path d="m512.48 602.68-257.44-50.94 183.2-152.34c-71.76-86.56-214.47-71.95-288.94 15.96-61.64 79.08-55.88 191.36 13.54 263.73 33.3 33.27 92.48 57.48 168.71 52.48 80.58-6.12 147.31-55.49 180.93-128.9Z" fill="#E50D3B"/>
  <path d="M304.38 740.6c-63.64 0-112.7-26.74-148.85-62.85-63.64-63.57-87.2-178.94-14.22-268.62a221.76 221.76 0 0 1 167.5-77.63h1.08c52.53-1.2 101.33 15.95 144.55 61.06 2.06 2.16 6.2 7 6.2 7L269.07 544.57l248.11 46.1-2.56 9.06-2.09 6.08c-27.67 73.65-96.06 127.46-180.43 134.1-6.95.45-20.76.68-27.71.68Zm4.29-388.95c-58.43.3-111.74 25.98-149.7 70.33-65.68 81.15-41.48 186.48 13.53 241.43 35.34 35.3 86.52 60.96 151.92 56.36 72.23-5.68 124.42-45.52 158.79-109.23l-263.68-51.7L428.95 398.3c-29.9-30.55-75.89-47.43-118.66-46.66h-1.62ZM591.64 484.15l107.3-257.82 166.37 85.42-104.96 255.5-168.7-83.1Z" fill="#fff"/>
  <path d="m702.2 217.32-2.12-.82a7.05 7.05 0 0 0-9.58 3.8L582.82 450.17c-5.7 10.67-10.09 22.73-15.79 33.4a13.52 13.52 0 0 0 6.3 17.76s104.74 47 158.73 67.89c17.24 6.67 27.64 11.43 32.53 8.88 4.9-2.55 7.05-7.83 15.1-25.93 30.69-68.92 116.32-241.17 116.32-241.17a14.46 14.46 0 0 0-7.58-20.5L702.2 217.33Zm-3.42 10.7 163.54 84.23L758.6 563.97l-161.66-81.61 101.84-254.33Z" fill="#34353D"/>
  <path d="m725.37 156.43 40.33-99.86 58.4 34.63-35.76 97.85-62.97-32.62Z" fill="#fff"/>
  <path d="m765.5 47.94-.9-.35a2.98 2.98 0 0 0-4.05 1.61l-45.53 97.18c-2.4 4.52-4.26 9.61-6.67 14.13a5.72 5.72 0 0 0 2.66 7.5s44.29 19.88 67.11 28.7c7.3 2.83 11.7 4.84 13.76 3.76 2.07-1.07 2.98-3.3 6.39-10.96 12.97-29.14 49.18-101.97 49.18-101.97a6.11 6.11 0 0 0-3.21-8.66L765.5 47.94Zm2.06 12.87 54.9 30.7-35.62 95.02-57.92-31.64 38.64-94.08Z" fill="#34353D"/>
  <path d="m506.9 182.06 71.78-166.92 104.7 57.42-69.97 161.53-106.5-52.03Z" fill="#fff"/>
  <path d="m577.69 3.3-1.46-.56a4.86 4.86 0 0 0-6.6 2.62l-74.2 158.39c-3.94 7.35-6.96 15.66-10.89 23.02A9.32 9.32 0 0 0 488.9 199s72.17 32.4 109.37 46.79c11.88 4.59 19.05 7.87 22.42 6.12 3.37-1.76 4.86-5.4 10.41-17.88 21.14-47.48 80.15-166.18 80.15-166.18a9.96 9.96 0 0 0-5.22-14.12L577.69 3.3Zm1.1 14.9 102.67 52.66-68.79 163.3-102.19-52.18L578.8 18.19Z" fill="#34353D"/>
</svg>
