<svg xmlns="http://www.w3.org/2000/svg" preserveAspectRatio="xMidYMid" viewBox="0 0 256 250">
  <path d="M128 0C57.32 0 0 57.3 0 128c0 56.56 36.68 104.54 87.53 121.46 6.4 1.19 8.75-2.78 8.75-6.16 0-3.05-.12-13.13-.17-23.83-35.61 7.75-43.13-15.1-43.13-15.1-5.82-14.8-14.21-18.73-14.21-18.73-11.61-7.94.88-7.78.88-7.78 12.85.9 19.62 13.19 19.62 13.19 11.41 19.57 29.94 13.91 37.25 10.64 1.14-8.27 4.46-13.92 8.12-17.12-28.43-3.23-58.32-14.2-58.32-63.25 0-13.98 5-25.4 13.2-34.36-1.34-3.23-5.72-16.24 1.23-33.88 0 0 10.75-3.44 35.21 13.12A122.7 122.7 0 0 1 128 61.9a123 123 0 0 1 32.07 4.3c24.43-16.56 35.16-13.12 35.16-13.12 6.97 17.64 2.59 30.65 1.26 33.88 8.2 8.96 13.17 20.38 13.17 34.36 0 49.16-29.94 59.98-58.45 63.15 4.6 3.97 8.69 11.76 8.69 23.7 0 17.13-.15 30.92-.15 35.13 0 3.41 2.3 7.4 8.79 6.14C219.37 232.5 256 184.54 256 128 256 57.3 198.7 0 128 0ZM47.94 182.34c-.28.64-1.28.83-2.2.39-.92-.42-1.44-1.28-1.14-1.92.27-.66 1.28-.84 2.2-.4.93.42 1.46 1.3 1.14 1.93Zm6.3 5.62c-.61.56-1.8.3-2.62-.6-.83-.89-1-2.08-.37-2.65.63-.57 1.78-.3 2.62.59.84.9 1 2.09.37 2.66Zm4.32 7.19c-.79.54-2.07.03-2.86-1.1-.79-1.15-.79-2.51.01-3.06.8-.55 2.06-.05 2.87 1.08.78 1.15.78 2.52-.02 3.08Zm7.3 8.32c-.7.77-2.2.57-3.29-.49-1.12-1.03-1.43-2.5-.73-3.27.71-.77 2.22-.56 3.32.5 1.11 1.02 1.45 2.5.7 3.26Zm9.44 2.81c-.3 1-1.75 1.46-3.2 1.03-1.44-.43-2.4-1.6-2.1-2.62.3-1.01 1.75-1.49 3.2-1.03 1.45.44 2.4 1.6 2.1 2.62Zm10.75 1.2c.03 1.05-1.2 1.92-2.72 1.94-1.53.04-2.77-.82-2.78-1.86 0-1.06 1.2-1.93 2.73-1.95 1.52-.03 2.77.81 2.77 1.86Zm10.55-.41c.18 1.03-.87 2.09-2.38 2.37-1.49.27-2.87-.37-3.05-1.39-.19-1.05.89-2.11 2.37-2.38 1.51-.27 2.87.35 3.06 1.4Z" fill="#555"/>
</svg>
